<svg xmlns="http://www.w3.org/2000/svg" viewBox="0 0 72.36 56.5"><defs><style>.cls-1{fill:none;stroke:#939598;stroke-linecap:round;stroke-linejoin:bevel;stroke-width:0.5px;}</style></defs><title>yuka-sign</title><g id="Layer_2" data-name="Layer 2"><g id="Layer_1-2" data-name="Layer 1"><path class="cls-1" d="M33.6.25C23.92,2,7.07,11.32,2.57,20.86-1.44,29.36-.83,40,9,40.94,20.12,42,35.1,35.79,40.58,25.42c1.9-3.6,3.88-11.23.12-13.95-1.83,7.44,5.7,46.87-5.44,44.69-1.53-10.9,3.44-24.23,10.31-32.61-.93,2.2-.79,4.39-.66,6.74,7,.76,14-2.74,12.39-11.06a14.37,14.37,0,0,1-1.88.05c-2.1,5.57-.82,13.28-.82,19.27,1.06-5.26.3-10.27,7.6-10.18a13.47,13.47,0,0,1,0,4c-.49-.16-1.81-.5-2.1-.59,2.55-.73,7,.39,7-3.41-2.39,1.63-2,1.13-.73,3.51.8-.44.51-1.16,1-1.42,2,1,3.67,0,4.8-.08"/><path class="cls-1" d="M76.59,31.31"/></g></g></svg>